# xmcd
#
# Track frame offsets:
# 182
# 9820
# 21995
# 37007
# 49432
# 60082
# 71745
# 84320
# 97520
# 107020
#
# Disc length: 1568 seconds
#
#
# Revision: 3
# Processed by: cddbd v1.5.1PL0 Copyright (c) Steve Scherf et al.
# Submitted via: FreeRIP 2.90 
#
DISCID=6e061e0a
DTITLE=Various Artist - Queens of Country - Vol 2
DYEAR=1900
DGENRE=Country
TTITLE0=Lyn Anderson - Snowbird
TTITLE1=Billy Jo Spears - Misty Blue
TTITLE2=Lyn Anderson - Desperado
TTITLE3=Anne Murray - All the Time
TTITLE4=Dolly Parton - It Wasn't God Who Made Honky Tonk Angels
TTITLE5=Sammi Smith - Help Me Make it Through the Night
TTITLE6=Lyn Anderson - I Fall to Pieces
TTITLE7=Dottie West - DIVORCE
TTITLE8=Jeannie C Riley - The Girl Most LikleyTo
TTITLE9=Donna Fargo - Wishful Thinking
EXTD=
EXTT0=
EXTT1=
EXTT2=
EXTT3=
EXTT4=
EXTT5=
EXTT6=
EXTT7=
EXTT8=
EXTT9=
PLAYORDER=
